<svg xmlns:xlink="http://www.w3.org/1999/xlink" xmlns="http://www.w3.org/2000/svg" width="92" height="30" viewBox="0 0 92 30" fill="none">
<path d="M22.9017 5.2041C23.4618 5.22863 24.0218 5.22863 24.5823 5.22863C25.0054 5.22863 25.4409 5.2041 25.9639 5.2041C27.246 5.2041 29.0881 5.73057 29.0881 7.64154C29.0881 9.0866 27.719 10.0908 26.412 10.0908C26.1629 10.0908 25.9639 10.0779 25.7769 10.0779V9.67395C25.9389 9.69861 26.0884 9.69861 26.25 9.69861C27.3205 9.69861 27.7935 8.65751 27.7935 7.77581C27.7935 6.07297 26.586 5.59523 25.7649 5.59523C25.5779 5.59523 25.3539 5.60814 25.2169 5.63215V12.5523C25.2169 13.4099 25.6899 13.4217 26.362 13.434V13.7528C25.7524 13.7528 25.2169 13.7283 24.6693 13.7283C24.0718 13.7283 23.4868 13.7412 22.8643 13.7528V13.434C23.5243 13.4211 23.9973 13.4099 23.9973 12.5523V6.72243C23.9973 5.77925 23.8353 5.52194 22.9017 5.52194V5.2041Z" fill="#918F90"/>
<path d="M30.8434 8.60902C30.8434 8.14358 30.5074 8.07026 29.9224 8.07026V7.75146C30.3954 7.76437 30.8809 7.77612 31.3539 7.77612C31.8515 7.77612 32.3745 7.76321 32.835 7.75146V8.07026C32.2875 8.07026 31.914 8.10666 31.914 8.60902V10.4585H35.3122V8.60902C35.3122 8.1067 34.9387 8.07026 34.3911 8.07026V7.75146C34.8517 7.76437 35.3742 7.77612 35.8722 7.77612C36.3453 7.77612 36.8308 7.76321 37.3038 7.75146V8.07026C36.7188 8.07026 36.3827 8.14358 36.3827 8.60902V12.8959C36.3827 13.3614 36.7188 13.4347 37.3038 13.4347V13.753C36.8308 13.7414 36.3453 13.7284 35.8722 13.7284C35.3742 13.7284 34.8517 13.7413 34.3911 13.753V13.4347C34.9387 13.4347 35.3122 13.3978 35.3122 12.8959V10.8506H31.914V12.8959C31.914 13.3978 32.2875 13.4347 32.835 13.4347V13.753C32.3745 13.7414 31.8515 13.7284 31.3539 13.7284C30.8809 13.7284 30.3954 13.7413 29.9224 13.753V13.4347C30.5074 13.4347 30.8434 13.3614 30.8434 12.8959V8.60902Z" fill="#918F90"/>
<path d="M41.7597 13.0182C41.7597 13.4345 42.2202 13.4345 42.7678 13.4345V13.7533C42.2702 13.7404 41.7472 13.7286 41.2492 13.7286C40.7391 13.7286 40.2161 13.7415 39.7186 13.7533V13.4345C40.3406 13.4345 40.6892 13.4345 40.6892 12.9572V11.1077L38.71 8.44988C38.4735 8.16797 38.2745 8.07005 37.9385 8.07005V7.75171C38.3365 7.76462 38.822 7.77623 39.2576 7.77623C39.7186 7.77623 40.2036 7.76333 40.6642 7.75171V8.07005C40.4276 8.07005 39.9796 8.07004 39.9796 8.22944C39.9796 8.33969 40.0421 8.40069 40.1541 8.56008L41.5357 10.5075L42.7433 8.85383C42.8798 8.68259 43.0043 8.4986 43.0043 8.35196C43.0043 8.16797 42.9548 8.07005 42.2827 8.07005V7.75171C42.6558 7.76462 43.1043 7.77623 43.4773 7.77623C43.7888 7.77623 44.1498 7.75171 44.5108 7.75171V8.07005C44.0998 8.07005 43.8758 8.09458 43.3528 8.76822L41.7597 10.8381V13.0182Z" fill="#918F90"/>
<path d="M47.2612 8.14362H46.3152C45.5561 8.14362 45.4066 8.24161 45.1951 9.07452H44.8711L45.0456 7.45776H45.2946C45.2946 7.69049 45.5811 7.75151 45.8421 7.75151H49.8129C50.0994 7.75151 50.2489 7.75151 50.4729 7.45776H50.7219L50.5974 9.07452H50.2609C50.1864 8.29073 50.0869 8.14362 49.5764 8.14362H48.3318V12.896C48.3318 13.3614 48.6678 13.4347 49.3273 13.4347V13.7531C48.7923 13.7415 48.2693 13.7284 47.7717 13.7284C47.2987 13.7284 46.8132 13.7413 46.2652 13.7531V13.4347C46.9252 13.4347 47.2612 13.3614 47.2612 12.896V8.14362Z" fill="#918F90"/>
<path d="M54.9191 7.60449C56.9357 7.60449 58.2548 8.95164 58.2548 10.7155C58.2548 12.2343 56.9727 13.8998 54.8321 13.8998C52.778 13.8998 51.4214 12.6014 51.4214 10.7278C51.4214 8.80454 53.089 7.60449 54.9191 7.60449ZM54.9691 13.5077C56.5372 13.5077 57.0352 12.1606 57.0352 10.838C57.0352 9.12333 56.0517 7.99661 54.7326 7.99661C53.2385 7.99661 52.641 9.28227 52.641 10.6053C52.641 12.2466 53.662 13.5077 54.9691 13.5077Z" fill="#918F90"/>
<path d="M60.5202 8.60902C60.5202 8.14358 60.1842 8.07026 59.5991 8.07026V7.75146C60.0721 7.76437 60.5577 7.77612 61.0307 7.77612C61.5907 7.77612 62.1508 7.75146 62.8228 7.75146C63.8559 7.75146 64.7649 8.16817 64.7649 9.42971C64.7649 10.7646 63.3954 11.2177 62.5863 11.2177C62.3498 11.2177 62.2133 11.193 62.1633 11.1813V10.8625C62.2133 10.8625 62.3873 10.8994 62.5118 10.8994C63.5074 10.8994 63.6198 10.1156 63.6198 9.601C63.6198 8.53575 63.0468 8.07031 62.1013 8.07031C61.8893 8.07031 61.7152 8.08321 61.5907 8.10671V12.896C61.5907 13.3614 61.9268 13.4347 62.5118 13.4347V13.7531C62.0513 13.7414 61.5283 13.7284 61.0307 13.7284C60.5577 13.7284 60.0721 13.7413 59.5991 13.7531V13.4347C60.1842 13.4347 60.5202 13.3614 60.5202 12.8959V8.60902Z" fill="#918F90"/>
<path d="M66.9186 8.60902C66.9186 8.14358 66.5826 8.07026 65.9976 8.07026V7.75146C66.4706 7.76437 66.9561 7.77612 67.4287 7.77612C67.9267 7.77612 68.4497 7.76321 68.9102 7.75146V8.07026C68.3627 8.07026 67.9892 8.10666 67.9892 8.60902V12.6878C67.9892 13.202 68.1507 13.3614 69.1342 13.3614C70.2418 13.3614 70.5158 13.1897 70.9764 12.1978H71.2874L70.9143 13.753C70.5908 13.7414 68.9722 13.7284 68.6112 13.7284C67.7402 13.7284 66.8686 13.7413 65.9976 13.753V13.4347C66.5826 13.4347 66.9186 13.3614 66.9186 12.8959V8.60902Z" fill="#918F90"/>
<path d="M75.4452 13.4346H75.5947C75.9058 13.4346 76.2168 13.349 76.2168 13.1408C76.2168 12.9937 76.1798 12.8958 76.1173 12.7364L75.6568 11.4995H73.5406L73.2671 12.2955C73.2171 12.4549 73.0556 12.8712 73.0556 13.0916C73.0556 13.3858 73.4661 13.4346 73.7026 13.4346H73.8521V13.7529C73.4286 13.7413 73.0056 13.7288 72.5821 13.7288C72.2586 13.7288 71.8975 13.7417 71.5615 13.7529V13.4346C72.1965 13.4346 72.3831 13.1772 72.4826 12.9204L74.2627 8.44994C74.3252 8.30283 74.3872 8.15573 74.3872 8.04552C74.3872 7.98446 74.3747 7.93526 74.3622 7.87428L75.3207 7.51904L77.1878 12.7118C77.3869 13.2752 77.5739 13.4346 78.2334 13.4346V13.7529C77.7604 13.7413 77.2998 13.7288 76.8393 13.7288C76.3788 13.7288 75.9058 13.7417 75.4452 13.7529V13.4346ZM74.6237 8.63347H74.5987L73.6901 11.1073H75.5198L74.6237 8.63347Z" fill="#918F90"/>
<path d="M79.7393 8.6457C79.7393 8.09464 78.9928 8.07005 78.7437 8.07005V7.75171C79.0423 7.76462 79.3288 7.77623 79.6148 7.77623C79.8763 7.77623 80.1873 7.76333 80.4488 7.75171L84.2455 12.1365V8.92761C84.2455 8.08233 83.9091 8.07005 83.2495 8.07005V7.75171C83.648 7.76462 84.0836 7.77623 84.4821 7.77623C84.8431 7.77623 85.2411 7.76333 85.6021 7.75171V8.07005C85.0171 8.07005 84.7431 8.09458 84.7431 8.70718V13.8999H84.4446L80.2373 9.07425V12.3447C80.2373 13.2264 80.3618 13.4345 81.2954 13.4345V13.7533C80.8849 13.7404 80.4114 13.7286 79.9883 13.7286C79.5653 13.7286 79.1418 13.7415 78.7188 13.7533V13.4345C79.7393 13.4345 79.7393 12.9326 79.7393 12.0509V8.6457Z" fill="#918F90"/>
<path d="M88.5395 8.14362H87.5935C86.834 8.14362 86.6849 8.24161 86.4729 9.07452H86.1494L86.3239 7.45776H86.5729C86.5729 7.69049 86.859 7.75151 87.1205 7.75151H91.0912C91.3777 7.75151 91.5267 7.75151 91.7507 7.45776H91.9997L91.8752 9.07452H91.5392C91.4647 8.29073 91.3652 8.14362 90.8547 8.14362H89.6101V12.896C89.6101 13.3614 89.9461 13.4347 90.6057 13.4347V13.7531C90.0706 13.7415 89.5476 13.7284 89.0496 13.7284C88.577 13.7284 88.0915 13.7413 87.544 13.7531V13.4347C88.2035 13.4347 88.5395 13.3614 88.5395 12.896V8.14362Z" fill="#918F90"/>
<path d="M25.3419 19.9177V22.7591C25.3419 23.6167 25.8149 23.629 26.4745 23.6413V23.9596C25.8769 23.9596 25.3419 23.935 24.7943 23.935C24.1968 23.935 23.6118 23.9479 22.9893 23.9596V23.6413C23.6118 23.6777 24.1218 23.5188 24.1218 22.8206V16.6109C24.1218 15.7533 23.6488 15.741 22.9893 15.7287V15.4104C23.6738 15.4233 24.2713 15.4351 24.8814 15.4351C25.3169 15.4351 25.7524 15.4104 26.5494 15.4104C28.9016 15.4104 29.4246 16.7088 29.4246 17.5782C29.4246 18.6193 28.6281 19.3913 27.657 19.6727C28.7896 21.3018 29.3871 22.2814 29.9227 22.8694C30.3207 23.3107 30.6942 23.6413 31.3292 23.6413V23.9596C31.0177 23.9596 30.7067 23.935 30.3957 23.935C30.0472 23.935 29.6861 23.9479 29.3376 23.9596C28.205 22.7346 27.371 21.3018 26.4745 19.9177H25.3419ZM26.0889 15.8025C25.7774 15.8025 25.5659 15.8389 25.3419 15.8758V19.4646C25.5284 19.5015 25.7899 19.5257 26.0014 19.5257C27.5325 19.5257 28.1301 18.5338 28.1301 17.652C28.1301 16.5863 27.5575 15.8026 26.0889 15.8026" fill="#918F90"/>
<path d="M37.0671 23.9596C36.171 23.9467 35.287 23.9349 34.3909 23.9349C33.5943 23.9349 32.7853 23.9479 31.9883 23.9596V23.6413C32.5733 23.6413 32.9098 23.5675 32.9098 23.102V18.8156C32.9098 18.3501 32.5733 18.2764 31.9883 18.2764V17.958C32.5488 17.9709 33.1088 17.9825 33.6689 17.9825C34.6894 17.9825 35.7225 17.9696 36.731 17.958L36.8056 19.2564H36.544C36.395 18.4235 36.1835 18.3501 34.9014 18.3501H33.9799V20.6651H35.0134C35.6355 20.6651 35.9095 20.6522 35.9095 19.8075H36.233C36.2206 20.1258 36.208 20.4565 36.208 20.7871C36.208 21.1182 36.2205 21.4611 36.233 21.8041H35.9095C35.9095 21.13 35.7475 21.0567 35.0134 21.0567H33.9799V22.8452C33.9799 23.3716 34.2789 23.5675 35.312 23.5675C36.569 23.5675 36.6561 23.4085 37.1416 22.6002H37.4531L37.0671 23.9596Z" fill="#918F90"/>
<path d="M38.5483 22.4776H38.8344C39.0834 23.3351 39.4694 23.7883 40.378 23.7883C41.3365 23.7883 41.5605 23.1511 41.5605 22.7713C41.5605 22.2694 41.2745 21.9511 40.4404 21.5221C39.0714 20.8244 38.7103 20.3589 38.7103 19.4034C38.7103 18.5705 39.4444 17.8113 40.5275 17.8113C41.0005 17.8113 41.5855 17.9215 41.9965 17.9338L42.1085 19.1338H41.847C41.71 18.6442 41.436 18.1296 40.6145 18.1296C39.9674 18.1296 39.5319 18.5459 39.5319 19.1092C39.5319 19.6972 39.7184 19.9299 40.9135 20.5056C42.2326 21.1427 42.4816 21.6569 42.4816 22.4284C42.4816 23.4085 41.5605 24.1066 40.2784 24.1066C39.7059 24.1066 39.2079 23.9964 38.7349 23.776L38.5483 22.4776Z" fill="#918F90"/>
<path d="M48.8176 23.9596C47.9215 23.9467 47.0375 23.9349 46.1414 23.9349C45.3448 23.9349 44.5358 23.9479 43.7388 23.9596V23.6413C44.3238 23.6413 44.6603 23.5675 44.6603 23.102V18.8156C44.6603 18.3501 44.3238 18.2764 43.7388 18.2764V17.958C44.2993 17.9709 44.8593 17.9825 45.4194 17.9825C46.4399 17.9825 47.4735 17.9696 48.4815 17.958L48.5561 19.2564H48.295C48.1455 18.4235 47.934 18.3501 46.6519 18.3501H45.7304V20.6651H46.7639C47.386 20.6651 47.66 20.6522 47.66 19.8075H47.9835C47.971 20.1258 47.9585 20.4565 47.9585 20.7871C47.9585 21.1182 47.971 21.4611 47.9835 21.8041H47.66C47.66 21.13 47.4985 21.0567 46.7639 21.0567H45.7304V22.8452C45.7304 23.3716 46.0294 23.5675 47.0625 23.5675C48.3195 23.5675 48.407 23.4085 48.8921 22.6002H49.2036L48.8176 23.9596Z" fill="#918F90"/>
<path d="M53.5102 23.6413H53.6597C53.9707 23.6413 54.2818 23.5557 54.2818 23.3476C54.2818 23.2005 54.2447 23.1025 54.1822 22.9431L53.7217 21.7062H51.6056L51.332 22.5023C51.2821 22.6617 51.1205 23.0779 51.1205 23.2984C51.1205 23.5921 51.5311 23.6413 51.7676 23.6413H51.9171V23.9597C51.4936 23.9467 51.0705 23.935 50.647 23.935C50.3235 23.935 49.9625 23.9479 49.6265 23.9597V23.6413C50.2615 23.6413 50.448 23.384 50.5475 23.1271L52.3276 18.6562C52.3901 18.5096 52.4521 18.3625 52.4521 18.2523C52.4521 18.1908 52.4397 18.142 52.4271 18.0806L53.3857 17.7253L55.2528 22.9185C55.4518 23.4819 55.6388 23.6413 56.2984 23.6413V23.9597C55.8253 23.9467 55.3648 23.935 54.9043 23.935C54.4438 23.935 53.9707 23.9479 53.5102 23.9597L53.5102 23.6413ZM52.6886 18.8402H52.6637L51.7551 21.3141H53.5847L52.6886 18.8402Z" fill="#918F90"/>
<path d="M57.8048 18.8156C57.8048 18.3501 57.4688 18.2768 56.8838 18.2768V17.958C57.3568 17.9709 57.8423 17.9825 58.3154 17.9825C58.9129 17.9825 59.7465 17.958 60.17 17.958C61.203 17.958 62.0496 18.4603 62.0496 19.4404C62.0496 20.1386 61.5766 20.6036 60.7175 20.8855C62.0496 23.1635 62.3731 23.4577 63.1697 23.6412V23.9596C62.9331 23.9467 62.6591 23.9349 62.4231 23.9349C62.1491 23.9349 61.8876 23.9478 61.614 23.9596C61.1285 23.4208 60.357 22.1593 59.7094 21.1182C59.5849 21.1311 59.4229 21.1429 59.2984 21.1429C59.1619 21.1429 58.9999 21.1299 58.8754 21.1182V23.1025C58.8754 23.6044 59.2489 23.6412 59.7965 23.6412V23.9596C59.3359 23.9467 58.8134 23.9349 58.3154 23.9349C57.8423 23.9349 57.3568 23.9478 56.8838 23.9596V23.6412C57.4688 23.6412 57.8048 23.5679 57.8048 23.1025V18.8156ZM59.3359 20.7507C60.3815 20.7507 60.979 20.359 60.979 19.4404C60.979 18.6685 60.4315 18.2768 59.4854 18.2768C59.3734 18.2768 58.9999 18.3009 58.8754 18.3132V20.7506L59.3359 20.7507Z" fill="#918F90"/>
<path d="M69.1831 23.7024C68.3365 23.9597 68.0255 24.1068 67.1294 24.1068C64.9263 24.1068 63.6562 22.7592 63.6562 20.9589C63.6562 19.0238 65.1748 17.811 67.067 17.811C68.0875 17.811 68.299 18.1052 69.3076 18.1417L69.3821 19.5626H69.0961C69.0961 19.2807 68.7225 18.2032 67.2414 18.2032C66.1584 18.2032 64.8018 18.8398 64.8018 20.7872C64.8018 22.1836 65.7229 23.7147 67.1915 23.7147C68.038 23.7147 68.6976 23.4328 69.0961 22.2696L69.4196 22.306L69.1831 23.7024Z" fill="#918F90"/>
<path d="M71.3483 18.8156C71.3483 18.3501 71.0123 18.2768 70.4272 18.2768V17.958C70.9003 17.9709 71.3858 17.9825 71.8588 17.9825C72.3564 17.9825 72.8794 17.9696 73.3399 17.958V18.2768C72.7924 18.2768 72.4189 18.3132 72.4189 18.8156V20.6651H75.8171V18.8156C75.8171 18.3132 75.4435 18.2768 74.896 18.2768V17.958C75.3565 17.9709 75.8791 17.9825 76.3771 17.9825C76.8501 17.9825 77.3356 17.9696 77.8087 17.958V18.2768C77.2236 18.2768 76.8876 18.3501 76.8876 18.8156V23.1025C76.8876 23.5679 77.2236 23.6412 77.8087 23.6412V23.9596C77.3356 23.9467 76.8501 23.9349 76.3771 23.9349C75.8791 23.9349 75.3565 23.9478 74.896 23.9596V23.6412C75.4435 23.6412 75.8171 23.6043 75.8171 23.1025V21.0572H72.4189V23.1025C72.4189 23.6044 72.7924 23.6412 73.3399 23.6412V23.9596C72.8794 23.9467 72.3564 23.9349 71.8588 23.9349C71.3858 23.9349 70.9003 23.9478 70.4272 23.9596V23.6412C71.0123 23.6412 71.3483 23.5679 71.3483 23.1025V18.8156Z" fill="#918F90"/>
<path d="M18.1112 0.156516C17.6372 0.221475 17.0715 0.314354 16.4378 0.443369C14.819 0.770939 12.754 1.33504 10.6514 2.30449C9.10251 3.01909 7.53417 3.95102 6.10747 5.17072C4.61458 6.44898 3.27862 8.03833 2.28799 10.0211C1.20894 12.1828 0.539104 14.8116 0.526606 18.0027C0.518208 19.8542 0.731213 21.896 1.21403 24.1465H1.21915C2.09914 24.092 2.93377 24.0069 3.73554 23.8967C6.95463 23.4497 9.55943 22.5717 11.662 21.4083C13.8974 20.169 15.5662 18.6066 16.8045 16.8914C17.9108 15.3556 18.6719 13.6981 19.1857 12.0438C19.8074 10.0372 20.0661 8.0333 20.1328 6.25179C20.2587 2.8846 19.7037 0.312523 19.6384 0.0265857L19.6218 0.0215298L19.6338 0.00505593C19.6329 0.00142475 19.6324 0 19.6324 0C19.6324 0 19.0598 0.0247066 18.1112 0.156467" fill="url(#paint0_linear_661_15594)"/>
<path d="M8.92206 5.04388C7.39908 6.25122 5.68445 4.18836 4.01426 4.52141C2.99863 4.5987 1.92421 5.24793 1.57194 6.06913C1.24096 6.96492 1.66591 7.82045 2.47045 8.39964C6.10663 10.4593 17.3225 9.52647 15.943 12.8699C15.5551 13.8087 13.916 14.882 12.9605 15.3948C11.2973 16.4892 6.258 17.0002 7.98235 18.9665C9.57476 20.7366 13.2582 19.7223 13.1406 22.4737C13.0429 24.7841 6.4802 24.6203 9.89602 26.4979C11.0996 27.1594 12.8119 27.6467 12.2851 28.7863C12.0486 29.333 11.556 29.7228 11.0806 30C11.4676 29.4767 11.5968 28.6948 11.2274 28.1316C10.2631 26.7962 7.22409 27.0442 7.82079 24.9598C8.1939 23.9313 9.62105 24.021 10.5149 23.5511C11.176 23.2318 12.5814 22.3113 11.5931 21.6928C9.98027 20.5211 7.5148 21.1456 6.38067 19.4387C5.94044 18.8224 5.7849 18.0341 6.10755 17.3072C6.87089 15.9072 8.84336 15.8642 10.2386 15.2356C23.0409 9.46012 -1.7027 13.5904 0.0938608 6.28096C0.40679 5.00819 1.88255 3.7066 3.48562 3.48242C8.92067 2.72252 9.04056 4.81237 8.92206 5.04388Z" fill="#009D43"/>
<defs>
<linearGradient id="paint0_linear_661_15594" x1="4.68101" y1="15.4756" x2="20.3258" y2="7.10503" gradientUnits="userSpaceOnUse">
<stop stop-color="#A1D84A"/>
<stop offset="0.00393446" stop-color="#A1D84A"/>
<stop offset="1" stop-color="#89CF25"/>
</linearGradient>
</defs>
</svg>